<?xml version="1.0" encoding="UTF-8"?>
<svg version="1.1" xmlns="http://www.w3.org/2000/svg" width="512" height="512">
<path d="M0 0 C168.96 0 337.92 0 512 0 C512 168.96 512 337.92 512 512 C343.04 512 174.08 512 0 512 C0 343.04 0 174.08 0 0 Z " fill="#1D1D1B" transform="translate(0,0)"/>
<path d="M0 0 C5.32211832 5.03756942 9.50562408 8.99749235 10.41015625 16.4921875 C10.27957038 22.96212366 6.51496029 27.38172359 2.05078125 31.74609375 C-14.16284556 44.59625542 -39.92767037 48.2016354 -60.02734375 48.8671875 C-59.53105469 49.84816406 -59.03476562 50.82914062 -58.5234375 51.83984375 C-32.70250525 103.05914899 -11.57947023 152.58524993 -30.03320312 210.00292969 C-38.35470345 233.97833289 -55.4070976 253.02530637 -76.33984375 266.8046875 C-76.92677002 267.19487061 -77.51369629 267.58505371 -78.1184082 267.98706055 C-81.39217804 270.08371308 -84.15142618 271.40905841 -88.02734375 271.8671875 C-88.18200929 263.87613471 -87.91995743 255.91317685 -87.58984375 247.9296875 C-87.55060791 246.92284912 -87.51137207 245.91601074 -87.47094727 244.87866211 C-87.42897217 243.91710205 -87.38699707 242.95554199 -87.34375 241.96484375 C-87.30709229 241.10383057 -87.27043457 240.24281738 -87.23266602 239.35571289 C-87.02166921 236.79841149 -86.57861767 234.37132195 -86.02734375 231.8671875 C-87.22073364 231.78065918 -87.22073364 231.78065918 -88.43823242 231.69238281 C-111.82037406 229.9520925 -134.90618743 226.65809422 -158.02734375 222.8671875 C-157.99253906 223.94871094 -157.95773438 225.03023437 -157.921875 226.14453125 C-157.93713657 240.03561533 -160.65394329 257.37976916 -167.02734375 269.8671875 C-169.18359375 271.25 -169.18359375 271.25 -171.02734375 271.8671875 C-173.63646318 266.98716782 -176.22442815 262.0967366 -178.79589844 257.19677734 C-179.90154093 255.10517532 -181.0277374 253.0263893 -182.16015625 250.94921875 C-188.33329284 239.4002031 -194.11266533 226.05970567 -195.41796875 212.94140625 C-195.74469986 209.74332595 -195.74469986 209.74332595 -198.171875 207.828125 C-199.05230469 207.30476562 -199.93273437 206.78140625 -200.83984375 206.2421875 C-208.08154651 201.57346795 -208.08154651 201.57346795 -210.02734375 197.8671875 C-210.21484375 194.4296875 -210.21484375 194.4296875 -209.02734375 190.8671875 C-203.31496852 185.15481227 -196.64338622 181.70699251 -189.52734375 177.9921875 C-187.78348389 177.06865479 -187.78348389 177.06865479 -186.00439453 176.12646484 C-183.7069131 174.91026425 -181.4076499 173.69742238 -179.10644531 172.48828125 C-175.94789986 170.82536167 -172.8037798 169.13767339 -169.66308594 167.44140625 C-163.59827376 164.17185692 -157.46350405 161.06291063 -151.28881836 158.00854492 C-145.96463222 155.36476237 -140.71246481 152.59681596 -135.46484375 149.8046875 C-127.44173215 145.54202668 -119.30684124 141.6047185 -111.02734375 137.8671875 C-111.07221924 137.2808252 -111.11709473 136.69446289 -111.16333008 136.09033203 C-111.76060473 128.19857112 -112.3133063 120.30394762 -112.85296631 112.40808105 C-112.97351154 110.651589 -113.09503445 108.89516387 -113.21734619 107.13879395 C-114.82395583 84.06329066 -116.30978929 61.00580317 -116.40234375 37.8671875 C-116.41385468 36.67651672 -116.41385468 36.67651672 -116.42559814 35.46179199 C-116.49263748 26.90273016 -116.06883067 18.52925738 -114.81640625 10.0546875 C-114.71693695 9.30735352 -114.61746765 8.56001953 -114.51498413 7.79003906 C-113.6562082 2.65636113 -111.99175007 0.17028438 -108.02734375 -3.1328125 C-107.30675781 -3.74125 -106.58617187 -4.3496875 -105.84375 -4.9765625 C-78.24931775 -25.25392692 -26.14645095 -21.99234192 0 0 Z " fill="#F6D13B" transform="translate(369.02734375,163.1328125)"/>
<path d="M0 0 C6.25535296 -0.30407966 11.91050568 0.8165453 18 2.1875 C18.9590625 2.38408203 19.918125 2.58066406 20.90625 2.78320312 C27.02663627 4.14936077 31.3028705 5.77764774 36 10 C37.0859375 12.15625 37.0859375 12.15625 37.375 14.5 C37.49617188 15.45261719 37.61734375 16.40523437 37.7421875 17.38671875 C38.13948496 22.95490283 38.39336762 28.5273987 38.60693359 34.10546875 C38.81097734 39.13795369 39.19090398 44.02048993 40 49 C41.50226108 58.26020633 41.67035237 67.63854325 42 77 C37.16527209 75.44070798 33.66808335 72.67989619 29.75 69.5625 C29.11320312 69.07201172 28.47640625 68.58152344 27.8203125 68.07617188 C23.12493987 64.37481962 23.12493987 64.37481962 22 61 C20.515 60.505 20.515 60.505 19 60 C5.67937372 46.42134706 -0.18227707 25.89481779 -0.125 7.3125 C-0.09990745 4.8741586 -0.05506001 2.43793484 0 0 Z " fill="#F4D03B" transform="translate(205,60)"/>
<path d="M0 0 C6.93 2.64 13.86 5.28 21 8 C21.07635244 16.47512103 21.05433285 24.9095772 20.625 33.375 C20.59414307 34.10581787 20.56328613 34.83663574 20.53149414 35.58959961 C20.23637921 40.76362079 20.23637921 40.76362079 18 43 C8.48023325 35.8116047 2.35138229 25.72840985 0 14 C-0.29092837 9.27360638 -0.18973964 4.74349111 0 0 Z " fill="#F2CE3B" transform="translate(255,83)"/>
<path d="M0 0 C5.13573758 3.06985818 9.55173835 7.31325865 11.578125 13.0546875 C11.6558596 15.38672562 11.66780228 17.72307809 11.578125 20.0546875 C8.328125 20.0546875 8.328125 20.0546875 4.578125 19.0546875 C3.22825696 17.11886388 2.38435218 15.16510319 1.453125 13 C0.23726103 10.29687385 -0.68257298 9.23925053 -3.421875 8.0546875 C-7.76946884 7.48263568 -11.30207654 7.57817752 -15.359375 9.3046875 C-17.57784146 11.18702267 -18.36321758 12.37435939 -19.421875 15.0546875 C-19.47830813 17.32072536 -19.47830813 17.32072536 -19.234375 19.6171875 C-19.171875 21.9921875 -19.171875 21.9921875 -19.421875 24.0546875 C-22.25432097 26.58092309 -23.63752276 27.0546875 -27.421875 27.0546875 C-28.91783462 21.70847117 -29.63637986 16.00779891 -27.48046875 10.765625 C-21.54167684 0.82419904 -11.40632546 -4.45214639 0 0 Z " fill="#26241C" transform="translate(293.421875,166.9453125)"/>
</svg>
